<svg viewBox="0 0 800 800" xmlns="http://www.w3.org/2000/svg"><path d="M429.09272684843063,786.7146727074842 L503.8117342934665,777.4474305832684 M503.8117342934665,777.4474305832684 L572.6169483924123,758.2510384948583 M572.6169483924123,758.2510384948583 L631.6112120687523,730.2164019330943 M631.6112120687523,730.2164019330943 L677.4574483032633,694.9354595192233 M677.4574483032633,694.9354595192233 L707.567863359798,654.4095751157794 M707.567863359798,654.4095751157794 L720.2493862781466,610.9348389547423 M720.2493862781466,610.9348389547423 L714.7973640961335,566.9710328204169 M714.7973640961335,566.9710328204169 L691.5327199656058,525.0021144888674 M691.5327199656058,525.0021144888674 L651.7809541169167,487.3960199253034 M651.7809541169167,487.3960199253034 L597.7948781558518,456.271782892333 M597.7948781558518,456.271782892333 L532.6259781929435,433.3812398211423 M532.6259781929435,433.3812398211423 L459.95193959867936,420.0116607026947 M459.95193959867936,420.0116607026947 L383.87010261597896,416.9144567981941 M383.87010261597896,416.9144567981941 L308.66819887270316,424.2636551652718 M308.66819887270316,424.2636551652718 L238.58476290473507,441.64628249399703 M238.58476290473507,441.64628249399703 L177.57235895425217,468.08519145313113 M177.57235895425217,468.08519145313113 L129.07605094447086,502.09308643209096 M129.07605094447086,502.09308643209096 L95.83951334878293,541.7549926729075 M95.83951334878293,541.7549926729075 L79.74941614640568,584.8348916423788 M79.39379367469314,181.01835309793725 L79.74941614640568,584.8348916423788 M79.39379367469314,181.01835309793725 L95.50186721080973,137.98650089914247 M95.50186721080973,137.98650089914247 L128.77542889908682,98.36884944801926 M128.77542889908682,98.36884944801926 L177.325698234282,64.39891584326085 M177.325698234282,64.39891584326085 L238.40594515990622,37.98952914623129 M238.40594515990622,37.98952914623129 L308.5672790121964,20.62631630066619 M308.5672790121964,20.62631630066619 L383.85275212054955,13.28532729251583 M383.85275212054955,13.28532729251583 L460.0191333153549,16.379071411382085 M460.0191333153549,16.379071411382085 L532.7739404865406,29.733717155876775 M532.7739404865406,29.733717155876775 L598.0152913551897,52.59869733442736 M598.0152913551897,52.59869733442736 L652.0614185078679,83.68818683105877 M652.0614185078679,83.68818683105877 L691.8574415658065,121.25231324205708 M691.8574415658065,121.25231324205708 L715.1480342600678,163.17441498069928 M715.1480342600678,163.17441498069928 L720.6062063253069,207.08920233685146 M720.6062063253069,207.08920233685146 L707.9106586167455,250.5154882912391 M707.9106586167455,250.5154882912391 L677.7668097387689,290.99622965850995 M677.7668097387689,290.99622965850995 L631.8696006558911,326.23788791016034 M631.8696006558911,326.23788791016034 L572.8096982250418,354.2413196965089 M572.8096982250418,354.2413196965089 L503.92789514430604,373.41635022673944 M503.92789514430604,373.41635022673944 L429.1256954531987,382.6732814687604 M429.1256954531987,382.6732814687604 L429.09272684843063,786.7146727074842 M224.9094756485775,501.1197090827286 L79.74941614640568,584.8348916423788 M429.09272684843063,786.7146727074842 L574.2528607169264,702.8132064915549 M574.2528607169264,702.8132064915549 L224.9094756485775,501.1197090827286 M574.2528607169264,702.8132064915549 L574.447372383441,298.8652036988242 M429.1256954531987,382.6732814687604 L574.447372383441,298.8652036988242 M574.447372383441,298.8652036988242 L224.71539599020622,97.39655843606113 M224.71539599020622,97.39655843606113 L79.39379367469314,181.01835309793725 M224.9094756485775,501.1197090827286 L224.71539599020622,97.39655843606113" stroke="black"  stroke-width="4"  fill="red"/></svg>