<svg version="1.1" xmlns="http://www.w3.org/2000/svg" viewBox="-3.503371859442341 -5.789735765330552 7.000002 11.725096775258468" fill="none" stroke="black" stroke-width="0.6%" vector-effect="non-scaling-stroke">
    <path d="M -1.76947 -4.33411 A 2.5 2.03871 0 0 1 -0.91425 -4.78973 L -0.91425 -3.29695" />
    <path d="M -0.34765 -2.59532 A 2.5 2.03871 0 0 1 1.75646 -2.02406" />
    <path d="M 2.32306 -1.32243 A 2.5 2.03871 0 0 1 2.49663 -0.57604 A 2.5 2.03871 0 0 1 2.32306 0.17035" />
    <path d="M 2.32306 -2.14478 L 2.32306 0.17035" />
    <path d="M 2.32306 -2.14478 A 2.5 2.03871 360 0 1 -2.50337 -2.89117 L -2.50337 2.89665 A 2.5 2.03871 180 1 0 2.49663 2.89665" />
    <path d="M -2.50337 -2.89117 A 2.5 2.03871 360 0 1 -1.76947 -4.33411" />
    <path d="M 2.32306 -2.14478 A 2.5 2.03871 0 0 1 -1.08782 -4.04334 A 2.5 2.03871 0 0 1 -0.91425 -4.78973" />
    <path d="M 2.49663 -0.57604 L 2.49663 2.89665" />
</svg>